<svg style="fill:red" height="512.00003pt" viewBox="0 0 512.00003 512.00003" width="512.00003pt" xmlns="http://www.w3.org/2000/svg"><path d="m54.332031 208.792969c3.648438 2.984375 9.027344 2.441406 12.011719-1.207031 2.980469-3.648438 2.441406-9.027344-1.207031-12.011719-1.988281-1.644531-5.402344-4.855469-5.402344-7.839844 0-4.523437 9.386719-15.414063 44.730469-24.261719 3.0625-.640625 5.527344-2.902344 6.429687-5.898437.898438-2.992188.089844-6.242188-2.113281-8.460938-2.203125-2.222656-5.445312-3.0625-8.445312-2.1875-37.726563 9.421875-57.667969 23.542969-57.667969 40.808594.414062 8.445313 4.722656 16.222656 11.664062 21.058594zm0 0"/><path d="m290.132812 228.796875c.699219 0 1.398438-.089844 2.074219-.265625 37.71875-9.414062 57.660157-23.535156 57.660157-40.796875-.777344-10.238281-6.757813-19.359375-15.839844-24.148437-3.910156-2.632813-9.214844-1.59375-11.84375 2.320312-2.628906 3.910156-1.589844 9.214844 2.320312 11.84375 5.273438 3.539062 8.296875 7.175781 8.296875 9.984375 0 4.523437-9.386719 15.410156-44.734375 24.25-4.175781 1.046875-6.917968 5.042969-6.394531 9.320313.527344 4.273437 4.15625 7.484374 8.460937 7.492187zm0 0"/><path d="m373.207031 302.257812c11.570313-9.207031 18.613281-22.953124 19.328125-37.722656v-76.800781c0-36.957031-50.03125-68.003906-128-80.101563v-39.367187c0-37.703125-30.566406-68.265625-68.269531-68.265625s-68.265625 30.5625-68.265625 68.265625v39.367187c-77.96875 12.097657-128 43.144532-128 80.101563v76.800781c0 38.867188 56.175781 71.15625 139.042969 81.714844-11.660157 9.171875-18.796875 22.933594-19.578125 37.75v42.667969c0 47.84375 86.1875 85.332031 196.269531 85.332031 110.078125 0 196.265625-37.488281 196.265625-85.332031v-42.667969c0-39.117188-57.632812-71.296875-138.792969-81.742188zm-176.941406-285.191406c28.265625.027344 51.171875 22.933594 51.199219 51.199219v143.949219c-3.523438 3.507812-21.460938 9.652344-51.199219 9.652344s-47.675781-6.144532-51.199219-9.652344v-143.949219c.027344-28.265625 22.933594-51.171875 51.199219-51.199219zm-68.265625 107.828125v88.4375c0 24.882813 61.285156 25.601563 68.265625 25.601563s68.269531-.71875 68.269531-25.601563v-88.4375c64.851563 10.632813 110.929688 36.386719 110.929688 62.839844 0 32.964844-72.003906 68.265625-179.199219 68.265625s-179.199219-35.300781-179.199219-68.265625c0-26.453125 46.082032-52.207031 110.933594-62.839844zm-110.933594 139.640625v-41.449218c30.371094 29.722656 98.320313 49.980468 179.199219 49.980468s148.832031-20.257812 179.199219-49.980468v41.449218c0 11.945313-9.777344 24.410156-27.449219 35.25-10.480469-.726562-21.257813-1.117187-32.28125-1.117187-64 0-119.824219 12.671875-155.4375 32.671875-80.476563-6.570313-143.230469-35.726563-143.230469-66.804688zm147.773438 83.460938c.253906-.125.5-.265625.742187-.417969 30.609375-18.191406 83.589844-31.84375 150.152344-31.84375 107.195313 0 179.199219 35.300781 179.199219 68.265625s-72.003906 68.265625-179.199219 68.265625-179.199219-35.300781-179.199219-68.265625c0-12.332031 10.085938-24.984375 28.304688-36.003906zm150.894531 146.9375c-107.195313 0-179.199219-35.300782-179.199219-68.265625v-7.3125c30.367188 29.71875 98.320313 49.976562 179.199219 49.976562s148.828125-20.257812 179.199219-49.976562v7.3125c0 32.964843-72.003906 68.265625-179.199219 68.265625zm0 0"/><path d="m315.734375 435.199219c76.328125 0 153.597656-17.585938 153.597656-51.199219s-77.269531-51.199219-153.597656-51.199219c-76.332031 0-153.601563 17.585938-153.601563 51.199219s77.269532 51.199219 153.601563 51.199219zm0-85.332031c89.640625 0 136.53125 22.1875 136.53125 34.132812s-46.890625 34.132812-136.53125 34.132812c-89.644531 0-136.535156-22.1875-136.535156-34.132812s46.933593-34.132812 136.535156-34.132812zm0 0"/><path d="m237.054688 396.457031c.621093.140625 1.253906.210938 1.886718.207031 3.988282-.003906 7.441406-2.765624 8.320313-6.65625.226562-.992187.269531-2.015624.128906-3.019531 11.433594-1.550781 22.945313-2.464843 34.484375-2.730469 4.710938-.074218 8.472656-3.953124 8.398438-8.667968-.074219-4.710938-3.953126-8.472656-8.664063-8.402344h-.28125c-59.460937 1.9375-59.460937 10.539062-59.460937 16.8125 0 9.035156 10.640624 11.433594 15.1875 12.457031zm0 0"/><path d="m349.867188 401.066406h.28125c59.453124-1.929687 59.453124-10.519531 59.453124-16.800781 0-9.03125-10.644531-11.4375-15.191406-12.460937-2.726562-.613282-5.585937.144531-7.648437 2.035156-2.0625 1.894531-3.0625 4.675781-2.683594 7.445312-11.4375 1.539063-22.949219 2.445313-34.484375 2.714844-3.046875.046875-5.839844 1.71875-7.320312 4.386719-1.484376 2.664062-1.433594 5.914062.136718 8.53125 1.566406 2.617187 4.40625 4.199219 7.457032 4.148437zm0 0"/></svg>